<?xml version="1.0" encoding="UTF-8" standalone="no"?>
<svg
   xmlns:dc="http://purl.org/dc/elements/1.1/"
   xmlns:cc="http://creativecommons.org/ns#"
   xmlns:rdf="http://www.w3.org/1999/02/22-rdf-syntax-ns#"
   xmlns:svg="http://www.w3.org/2000/svg"
   xmlns="http://www.w3.org/2000/svg"
   xmlns:sodipodi="http://sodipodi.sourceforge.net/DTD/sodipodi-0.dtd"
   xmlns:inkscape="http://www.inkscape.org/namespaces/inkscape"
   viewBox="0.0 0.0 348.0 348.0"
   fill="none"
   version="1.1"
   id="svg6"
   sodipodi:docname="Hold Up's.svg"
   inkscape:version="0.92.3 (2405546, 2018-03-11)">
  <metadata
     id="metadata12">
    <rdf:RDF>
      <cc:Work
         rdf:about="">
        <dc:format>image/svg+xml</dc:format>
        <dc:type
           rdf:resource="http://purl.org/dc/dcmitype/StillImage" />
      </cc:Work>
    </rdf:RDF>
  </metadata>
  <defs
     id="defs10" />
  <sodipodi:namedview
     pagecolor="#ffffff"
     bordercolor="#666666"
     borderopacity="1"
     objecttolerance="10"
     gridtolerance="10"
     guidetolerance="10"
     inkscape:pageopacity="0"
     inkscape:pageshadow="2"
     inkscape:window-width="1920"
     inkscape:window-height="1001"
     id="namedview8"
     showgrid="false"
     inkscape:zoom="1.9181287"
     inkscape:cx="85.6048"
     inkscape:cy="169.09346"
     inkscape:window-x="-9"
     inkscape:window-y="-9"
     inkscape:window-maximized="1"
     inkscape:current-layer="svg6" />
  <path
     d="M5.079 5.776h336.913v337.67H5.08z"
     stroke-width="2"
     stroke="#000"
     id="path2" />
  <path
     d="M282.734 40.554c0-8.376 6.966-15.165 15.56-15.165 4.126 0 8.084 1.597 11.001 4.441 2.918 2.844 4.558 6.702 4.558 10.724 0 8.376-6.966 15.165-15.56 15.165-8.593 0-15.559-6.79-15.559-15.165z"
     stroke-width="2"
     stroke="#000"
     id="path4" />
  <flowRoot
     xml:space="preserve"
     id="flowRoot824"
     style="font-style:normal;font-variant:normal;font-weight:500;font-stretch:normal;font-size:53.33333206px;line-height:1.25;font-family:'Goodbye Despair';-inkscape-font-specification:'Goodbye Despair, Medium';font-variant-ligatures:normal;font-variant-caps:normal;font-variant-numeric:normal;font-feature-settings:normal;text-align:start;letter-spacing:0px;word-spacing:0px;writing-mode:lr-tb;text-anchor:start;fill:#fffeff;fill-opacity:1;stroke:none;"><flowRegion
       id="flowRegion826"
       style="fill:#fffeff;fill-opacity:1;"><rect
         id="rect828"
         width="227.8262"
         height="69.859756"
         x="28.152437"
         y="28.939037"
         style="fill:#fffeff;fill-opacity:1;" /></flowRegion><flowPara
       id="flowPara830">ShaSdow Namehadow name</flowPara></flowRoot>  <flowRoot
     xml:space="preserve"
     id="flowRoot834"
     style="fill:black;fill-opacity:1;stroke:none;font-family:'Goodbye Despair';font-style:normal;font-weight:500;font-size:53.33333333px;line-height:1.25;letter-spacing:0px;word-spacing:0px;-inkscape-font-specification:'Goodbye Despair, Medium';font-stretch:normal;font-variant:normal;text-anchor:start;text-align:start;writing-mode:lr;font-variant-ligatures:normal;font-variant-caps:normal;font-variant-numeric:normal;font-feature-settings:normal"><flowRegion
       id="flowRegion836"><rect
         id="rect838"
         width="218.96341"
         height="64.646339"
         x="31.280487"
         y="33.109768" /></flowRegion><flowPara
       id="flowPara840" /></flowRoot>  <text
     xml:space="preserve"
     style="font-style:normal;font-variant:normal;font-weight:500;font-stretch:normal;font-size:66.2667923px;line-height:1.25;font-family:'Goodbye Despair';-inkscape-font-specification:'Goodbye Despair, Medium';font-variant-ligatures:normal;font-variant-caps:normal;font-variant-numeric:normal;font-feature-settings:normal;text-align:start;letter-spacing:0px;word-spacing:0px;writing-mode:lr-tb;text-anchor:start;fill:#ffffff;fill-opacity:1;stroke:none;stroke-width:1.24250245"
     x="166.8217"
     y="64.479698"
     id="text844"
     transform="scale(0.86116518,1.1612174)"><tspan
       sodipodi:role="line"
       id="tspan842"
       x="166.8217"
       y="122.46314"
       style="font-style:normal;font-variant:normal;font-weight:normal;font-stretch:normal;font-size:41.41674805px;font-family:'Earwig Factory';-inkscape-font-specification:'Earwig Factory, Normal';font-variant-ligatures:normal;font-variant-caps:normal;font-variant-numeric:normal;font-feature-settings:normal;text-align:center;writing-mode:lr-tb;text-anchor:middle;stroke-width:1.24250245" /></text>
  <rect
     style="fill:none;fill-rule:evenodd;fill-opacity:1;stroke:#000000;stroke-opacity:1;stroke-width:5;stroke-miterlimit:4;stroke-dasharray:none"
     id="rect846"
     width="302.37802"
     height="185.07622"
     x="24.503048"
     y="137.37805" />
  <rect
     style="fill:#000000;fill-opacity:1;fill-rule:evenodd"
     id="rect848"
     width="304.72403"
     height="6.2560883"
     x="23.631588"
     y="228.10233" />
  <rect
     style="fill:#000000;fill-opacity:1;fill-rule:evenodd"
     id="rect852"
     width="5.1610169"
     height="182.11017"
     x="171.41949"
     y="138.61017" />
  <path
     style="opacity:0.981;fill:#646464;fill-opacity:1;stroke:#000000;stroke-width:1.84322035;stroke-linecap:round;stroke-linejoin:bevel;stroke-miterlimit:4;stroke-dasharray:none;stroke-dashoffset:1.00157475;stroke-opacity:1"
     d="M 176.71816,183.99886 V 139.9459 h 73.72881 73.72882 v 44.05296 44.05297 h -73.72882 -73.72881 z"
     id="path856"
     inkscape:connector-curvature="0" />
  <path
     style="opacity:0.981;fill:#646464;fill-opacity:1;stroke:#000000;stroke-width:1.84322035;stroke-linecap:round;stroke-linejoin:bevel;stroke-miterlimit:4;stroke-dasharray:none;stroke-dashoffset:1.00157475;stroke-opacity:1"
     d="M 27.048669,183.99886 V 139.9459 H 99.118584 171.1885 v 44.05296 44.05297 H 99.118584 27.048669 Z"
     id="path858"
     inkscape:connector-curvature="0" />
  <path
     style="opacity:0.981;fill:#646464;fill-opacity:1;stroke:#000000;stroke-width:1.84322035;stroke-linecap:round;stroke-linejoin:bevel;stroke-miterlimit:4;stroke-dasharray:none;stroke-dashoffset:1.00157475;stroke-opacity:1"
     d="M 27.048669,277.26581 V 234.68742 H 99.118584 171.1885 v 42.57839 42.57839 H 99.118584 27.048669 Z"
     id="path860"
     inkscape:connector-curvature="0" />
  <path
     style="opacity:0.981;fill:#646464;fill-opacity:1;stroke:#000000;stroke-width:1.84322035;stroke-linecap:round;stroke-linejoin:bevel;stroke-miterlimit:4;stroke-dasharray:none;stroke-dashoffset:1.00157475;stroke-opacity:1"
     d="m 176.71816,277.26581 v -42.57839 h 73.72881 73.72882 v 42.57839 42.57839 h -73.72882 -73.72881 z"
     id="path862"
     inkscape:connector-curvature="0" />
  <path
     style="opacity:0.981;fill:#ff0000;fill-opacity:1;stroke:#000000;stroke-width:2.6067071;stroke-linecap:round;stroke-linejoin:bevel;stroke-miterlimit:4;stroke-dasharray:none;stroke-dashoffset:1.00157475;stroke-opacity:1"
     d="M 27.975884,184.04063 V 141.02996 H 99.138991 170.3021 v 43.01067 43.01066 H 99.138991 27.975884 Z"
     id="path864"
     inkscape:connector-curvature="0" />
  <g
     aria-label="Move Name"
     style="font-style:normal;font-variant:normal;font-weight:500;font-stretch:normal;font-size:53.33333206px;line-height:1.25;font-family:'Goodbye Despair';-inkscape-font-specification:'Goodbye Despair, Medium';font-variant-ligatures:normal;font-variant-caps:normal;font-variant-numeric:normal;font-feature-settings:normal;text-align:start;letter-spacing:0px;word-spacing:0px;writing-mode:lr-tb;text-anchor:start;fill:#000000;fill-opacity:1;stroke:none"
     id="text868">
    <path
       d="m 52.003811,179.7843 q 1.03125,-0.3125 1.875,-0.3125 0.78125,0 1,0.40625 0.21875,0.375 0.15625,8.78125 l -0.0625,8.40625 -0.5,0.40625 q -0.375,0.28125 -0.75,0.3125 -0.625,0.0625 -1.65625,0.0312 l -1.875,-0.0625 0.0625,-3.84375 q 0.09375,-3.8125 -0.09375,-3.8125 -0.21875,0 -0.9375,1.46875 -0.625,1.3125 -1.15625,2.71875 -0.5,1.375 -0.84375,1.71875 -0.40625,0.40625 -1.21875,0.40625 -0.71875,0 -1.125,-0.34375 -0.375,-0.3125 -0.78125,-1.4375 -0.3125,-0.9375 -1.09375,-2.5625 -0.65625,-1.3125 -0.84375,-1.34375 -0.3125,0 -0.375,2.59375 v 0.6875 q 0,2.0625 -0.0625,2.6875 -0.03125,0.46875 -0.40625,0.78125 -0.4375,0.28125 -0.78125,0.3125 -0.625,0.0625 -1.625,0.0312 l -1.90625,-0.0625 -0.09375,-7.75 q -0.125,-7.71875 -0.4375,-8.3125 -0.1875,-0.375 -0.1875,-0.53125 0,-0.15625 0.1875,-0.34375 0.21875,-0.21875 1.6875,-0.625 1.375,-0.375 2.15625,-0.375 0.5625,-0.0312 0.78125,0.0937 0.21875,0.125 0.53125,0.53125 0.4375,0.71875 0.5625,1.03125 0.40625,1 0.5625,1.4375 0.34375,1.03125 0.40625,1.15625 0.375,0.8125 1.84375,4.875 0.65625,1.78125 1.0625,1.78125 0.15625,-0.0625 0.34375,-0.1875 0.1875,-0.21875 0.8125,-1.78125 0.6875,-1.6875 1.28125,-3.21875 0.6875,-1.8125 0.71875,-1.875 0,-0.0312 0.71875,-1.9375 0.25,-0.75 0.75,-1.25 0.40625,-0.40625 1.3125,-0.6875 z"
       style="font-style:normal;font-variant:normal;font-weight:normal;font-stretch:normal;font-size:32px;font-family:p5hatty;-inkscape-font-specification:'p5hatty, Normal';font-variant-ligatures:normal;font-variant-caps:normal;font-variant-numeric:normal;font-feature-settings:normal;text-align:start;writing-mode:lr-tb;text-anchor:start"
       id="path850" />
    <path
       d="m 59.035061,186.50305 q 0.6875,-0.34375 2.6875,-0.34375 2,0 2.6875,0.25 0.875,0.375 1.6875,1.15625 0.84375,0.8125 1.21875,1.59375 0.53125,1.09375 0.53125,2.8125 0,1.5625 -0.59375,2.84375 -1.4375,3.25 -5.65625,3.25 -1.9375,0 -3.40625,-0.9375 -1.46875,-0.9375 -2.0625,-2.53125 -0.5,-1.34375 -0.46875,-2.6875 0.03125,-1.4375 0.53125,-2.5 0.4375,-0.96875 1.21875,-1.75 0.75,-0.75 1.625,-1.15625 z m 3.71875,2.21875 q -0.5625,-0.59375 -0.875,-0.65625 -0.28125,-0.0625 -0.84375,0.40625 -1.1875,0.90625 -1.1875,3.59375 0,1.15625 0.28125,2.125 0.25,0.8125 0.84375,1.375 1.125,1 2.125,-0.71875 0.78125,-1.34375 0.6875,-3.1875 -0.09375,-1.875 -1.03125,-2.9375 z"
       style="font-style:normal;font-variant:normal;font-weight:normal;font-stretch:normal;font-size:32px;font-family:p5hatty;-inkscape-font-specification:'p5hatty, Normal';font-variant-ligatures:normal;font-variant-caps:normal;font-variant-numeric:normal;font-feature-settings:normal;text-align:start;writing-mode:lr-tb;text-anchor:start"
       id="path852" />
    <path
       d="m 73.285061,188.0968 q 0.15625,0.46875 0.4375,1.09375 0.40625,0.90625 0.40625,1.15625 0,0.375 0.4375,1 0.25,0.34375 0.375,0.5 0.15625,0.15625 0.25,0.125 0.15625,-0.0312 1.03125,-1.90625 0.84375,-1.8125 0.84375,-2.15625 0,-0.5 0.625,-0.90625 0.6875,-0.4375 1.34375,-0.4375 1.15625,0 1.25,0.5625 0.09375,0.53125 -0.875,2.46875 -0.25,0.53125 -1.5625,3.46875 -1.65625,3.71875 -2.09375,4.34375 -0.46875,0.65625 -1.5,0.65625 -0.34375,0 -0.5,-0.0312 -0.09375,-0.0312 -0.21875,-0.0625 -0.125,-0.0625 -0.1875,-0.0625 -0.1875,-0.0312 -0.34375,-0.15625 -0.03125,-0.0312 -0.15625,-0.0937 -0.125,-0.0625 -0.15625,-0.0937 -0.125,-0.0937 -0.1875,-0.28125 -0.0625,-0.1875 -0.0625,-0.25 0,-0.25 -0.6875,-1.71875 -3.25,-7.1875 -3.34375,-7.9375 -0.03125,-0.1875 0.03125,-0.3125 0.0625,-0.125 0.21875,-0.1875 0.25,-0.0937 0.5625,-0.125 0.65625,-0.0937 1.90625,-0.15625 0.6875,-0.0312 1,0.0625 0.1875,0.0625 0.59375,0.5625 0.5625,0.65625 0.5625,0.875 z"
       style="font-style:normal;font-variant:normal;font-weight:normal;font-stretch:normal;font-size:32px;font-family:p5hatty;-inkscape-font-specification:'p5hatty, Normal';font-variant-ligatures:normal;font-variant-caps:normal;font-variant-numeric:normal;font-feature-settings:normal;text-align:start;writing-mode:lr-tb;text-anchor:start"
       id="path854" />
    <path
       d="m 84.847561,186.12805 q 0.625,-0.21875 2.53125,-0.15625 1.8125,0.0312 2.375,0.28125 1.3125,0.53125 2.21875,1.875 0.84375,1.25 1,3 0.0625,1.28125 -0.1875,1.5625 -0.375,0.375 -2.6875,0.375 h -0.96875 q -3.34375,0 -3.6875,0.3125 -0.28125,0.28125 0.1875,1.0625 1.34375,2.5625 3.9375,0.84375 1.5,-1.03125 1.84375,-1.15625 0.21875,-0.0625 0.75,0.1875 0.875,0.5 0.5,1.34375 -0.34375,0.78125 -1.9375,1.75 -0.65625,0.375 -1.1875,0.46875 -0.5,0.0937 -2.28125,0.0937 -2.46875,0 -3.0625,-0.1875 -0.6875,-0.15625 -1.6875,-1.1875 -0.9375,-0.96875 -1.1875,-1.78125 -0.5625,-1.96875 -0.34375,-3.6875 0.21875,-1.75 1.1875,-3.03125 1.15625,-1.5 2.6875,-1.96875 z m 3.0625,2.40625 q -0.71875,-0.46875 -1.5625,-0.15625 -0.3125,0.125 -0.6875,1.09375 -0.375,0.96875 -0.1875,1.125 0.1875,0.1875 1.59375,0.1875 1.40625,0 1.625,-0.21875 0.21875,-0.21875 -0.0625,-0.96875 -0.28125,-0.78125 -0.71875,-1.0625 z"
       style="font-style:normal;font-variant:normal;font-weight:normal;font-stretch:normal;font-size:32px;font-family:p5hatty;-inkscape-font-specification:'p5hatty, Normal';font-variant-ligatures:normal;font-variant-caps:normal;font-variant-numeric:normal;font-feature-settings:normal;text-align:start;writing-mode:lr-tb;text-anchor:start"
       id="path857" />
    <path
       d="m 114.47256,179.9718 q 2,-0.53125 2.4375,-0.5 0.53125,0.0625 0.8125,0.71875 0.3125,0.84375 0.3125,8 0,5.5 -0.15625,7.375 -0.125,1.65625 -0.59375,2.03125 -0.4375,0.28125 -2,0.28125 -1.65625,0 -2.0625,-0.21875 -0.15625,-0.0937 -0.53125,-0.625 -0.25,-0.34375 -0.6875,-1.09375 -0.4375,-0.75 -0.6875,-1.15625 -0.0937,-0.15625 -0.21875,-0.3125 -0.0937,-0.1875 -0.125,-0.28125 l -0.0625,-0.0937 q -0.25,-0.4375 -0.46875,-0.875 -0.4375,-0.90625 -1.65625,-3.21875 -0.84375,-1.59375 -1.09375,-1.9375 -0.46875,-0.46875 -0.625,0.1875 -0.125,0.65625 -0.125,4.1875 v 4.375 l -0.53125,0.5625 q -0.375,0.375 -0.71875,0.40625 -0.5625,0.0625 -1.71875,0.0312 l -1.9375,-0.0625 -0.1875,-7.84375 q -0.0937,-7.625 -0.1875,-8.5625 l -0.0625,-0.75 2.09375,-0.5 q 0.375,-0.0625 0.59375,-0.15625 1.65625,-0.4375 2.3125,0.28125 0.625,0.65625 3.125,5.4375 0.1875,0.34375 0.5,0.9375 0.3125,0.59375 0.4375,0.84375 0.9375,1.8125 1.4375,2.53125 0.5625,0.8125 0.78125,0.71875 0.25,-0.0625 0.15625,-4.125 -0.0312,-4.0625 -0.4375,-4.75 -0.375,-0.71875 0,-1.09375 0.3125,-0.34375 1.875,-0.75 z"
       style="font-style:normal;font-variant:normal;font-weight:normal;font-stretch:normal;font-size:32px;font-family:p5hatty;-inkscape-font-specification:'p5hatty, Normal';font-variant-ligatures:normal;font-variant-caps:normal;font-variant-numeric:normal;font-feature-settings:normal;text-align:start;writing-mode:lr-tb;text-anchor:start"
       id="path859" />
    <path
       d="m 122.28506,186.12805 q 0.65625,-0.15625 3.03125,-0.1875 1.625,0 2.1875,0.0937 0.625,0.0937 1.3125,0.40625 1.09375,0.5625 1.59375,1.4375 0.375,0.65625 0.46875,1.34375 0.0625,0.5625 0.125,3.84375 0.0937,4.25 -0.125,4.53125 -0.15625,0.28125 -2.375,0.25 -2.28125,-0.0625 -3.25,0.21875 -1.15625,0.28125 -2.53125,0.1875 -1.53125,-0.0937 -2.3125,-0.53125 -1.40625,-0.6875 -1.71875,-2.0625 -0.34375,-1.4375 0.59375,-2.6875 0.6875,-0.90625 1.4375,-1.28125 0.78125,-0.34375 1.09375,-0.5625 0.5,-0.1875 2,-0.40625 1.59375,-0.21875 2.1875,-0.53125 0.5625,-0.28125 0.5625,-0.90625 0,-0.34375 -0.15625,-0.59375 -0.15625,-0.25 -0.53125,-0.34375 -0.375,-0.0937 -0.9375,-0.0937 -0.9375,0 -1.28125,0.21875 -0.375,0.21875 -0.96875,1.15625 -0.5625,0.84375 -0.78125,0.96875 -0.25,0.15625 -0.96875,0.15625 -0.9375,0 -1.4375,-0.34375 -0.4375,-0.3125 -0.4375,-1.0625 0,-1.125 0.84375,-1.96875 0.8125,-0.8125 2.375,-1.25 z m 4.34375,7.34375 q 0.0625,-0.46875 -0.0312,-0.59375 -0.125,-0.1875 -0.4375,-0.21875 -0.28125,-0.0312 -0.84375,0.1875 -0.53125,0.21875 -0.78125,0.21875 -0.90625,0 -1.3125,1 -0.4375,1.0625 0.21875,1.71875 0.40625,0.40625 0.71875,0.40625 0.3125,0 0.96875,-0.46875 1.40625,-0.9375 1.5,-2.25 z"
       style="font-style:normal;font-variant:normal;font-weight:normal;font-stretch:normal;font-size:32px;font-family:p5hatty;-inkscape-font-specification:'p5hatty, Normal';font-variant-ligatures:normal;font-variant-caps:normal;font-variant-numeric:normal;font-feature-settings:normal;text-align:start;writing-mode:lr-tb;text-anchor:start"
       id="path861" />
    <path
       d="m 133.44131,186.5968 q 0.71875,-0.125 3.28125,-0.125 2.375,0.0625 2.875,0.375 0.46875,0.34375 0.96875,0.34375 0.40625,0 1.34375,-0.4375 1.125,-0.46875 2.5,-0.375 1.375,0.0937 2.15625,0.75 1.09375,0.84375 1.375,1.875 0.3125,1.03125 0.34375,4.21875 v 0.25 q 0.0625,3.46875 -0.25,4.0625 -0.28125,0.5625 -2.09375,0.5 h -0.0937 l -1.8125,-0.0625 -0.0625,-4.28125 q -0.0312,-3.15625 -0.21875,-4.09375 -0.15625,-0.75 -0.75,-0.65625 -0.4375,0.0312 -0.59375,0.84375 -0.0937,0.59375 -0.15625,3.78125 v 0.21875 q -0.0625,3.15625 -0.3125,3.65625 -0.28125,0.53125 -2.03125,0.53125 h -0.0937 -1.875 l -0.0937,-4.375 q -0.0312,-2.71875 -0.15625,-3.65625 -0.0937,-0.8125 -0.28125,-0.9375 -0.375,-0.21875 -0.8125,0.15625 -0.3125,0.28125 -0.34375,0.90625 -0.0625,0.8125 -0.0625,3.3125 v 0.21875 q 0,3.3125 -0.3125,3.9375 -0.28125,0.5625 -2.09375,0.5 h -0.125 l -1.78125,-0.0625 v -4.5 q 0,-4.53125 -0.1875,-5.375 -0.125,-0.5 -0.0625,-0.75 0.0312,-0.1875 0.375,-0.375 0.4375,-0.25 1.4375,-0.375 z"
       style="font-style:normal;font-variant:normal;font-weight:normal;font-stretch:normal;font-size:32px;font-family:p5hatty;-inkscape-font-specification:'p5hatty, Normal';font-variant-ligatures:normal;font-variant-caps:normal;font-variant-numeric:normal;font-feature-settings:normal;text-align:start;writing-mode:lr-tb;text-anchor:start"
       id="path863" />
    <path
       d="m 152.78506,186.12805 q 0.625,-0.21875 2.53125,-0.15625 1.8125,0.0312 2.375,0.28125 1.3125,0.53125 2.21875,1.875 0.84375,1.25 1,3 0.0625,1.28125 -0.1875,1.5625 -0.375,0.375 -2.6875,0.375 h -0.96875 q -3.34375,0 -3.6875,0.3125 -0.28125,0.28125 0.1875,1.0625 1.34375,2.5625 3.9375,0.84375 1.5,-1.03125 1.84375,-1.15625 0.21875,-0.0625 0.75,0.1875 0.875,0.5 0.5,1.34375 -0.34375,0.78125 -1.9375,1.75 -0.65625,0.375 -1.1875,0.46875 -0.5,0.0937 -2.28125,0.0937 -2.46875,0 -3.0625,-0.1875 -0.6875,-0.15625 -1.6875,-1.1875 -0.9375,-0.96875 -1.1875,-1.78125 -0.5625,-1.96875 -0.34375,-3.6875 0.21875,-1.75 1.1875,-3.03125 1.15625,-1.5 2.6875,-1.96875 z m 3.0625,2.40625 q -0.71875,-0.46875 -1.5625,-0.15625 -0.3125,0.125 -0.6875,1.09375 -0.375,0.96875 -0.1875,1.125 0.1875,0.1875 1.59375,0.1875 1.40625,0 1.625,-0.21875 0.21875,-0.21875 -0.0625,-0.96875 -0.28125,-0.78125 -0.71875,-1.0625 z"
       style="font-style:normal;font-variant:normal;font-weight:normal;font-stretch:normal;font-size:32px;font-family:p5hatty;-inkscape-font-specification:'p5hatty, Normal';font-variant-ligatures:normal;font-variant-caps:normal;font-variant-numeric:normal;font-feature-settings:normal;text-align:start;writing-mode:lr-tb;text-anchor:start"
       id="path865" />
  </g>
  <g
     aria-label="Move Name"
     inkscape:transform-center-x="44.314022"
     inkscape:transform-center-y="2.0853658"
     style="font-style:normal;font-variant:normal;font-weight:500;font-stretch:normal;font-size:53.33333206px;line-height:1.25;font-family:'Goodbye Despair';-inkscape-font-specification:'Goodbye Despair, Medium';font-variant-ligatures:normal;font-variant-caps:normal;font-variant-numeric:normal;font-feature-settings:normal;text-align:start;letter-spacing:0px;word-spacing:0px;writing-mode:lr-tb;text-anchor:start;fill:#000000;fill-opacity:1;stroke:none"
     id="text868-5">
    <path
       d="m 203.64389,179.33128 q 1.03125,-0.3125 1.875,-0.3125 0.78125,0 1,0.40625 0.21875,0.375 0.15625,8.78125 l -0.0625,8.40625 -0.5,0.40625 q -0.375,0.28125 -0.75,0.3125 -0.625,0.0625 -1.65625,0.0312 l -1.875,-0.0625 0.0625,-3.84375 q 0.0937,-3.8125 -0.0937,-3.8125 -0.21875,0 -0.9375,1.46875 -0.625,1.3125 -1.15625,2.71875 -0.5,1.375 -0.84375,1.71875 -0.40625,0.40625 -1.21875,0.40625 -0.71875,0 -1.125,-0.34375 -0.375,-0.3125 -0.78125,-1.4375 -0.3125,-0.9375 -1.09375,-2.5625 -0.65625,-1.3125 -0.84375,-1.34375 -0.3125,0 -0.375,2.59375 v 0.6875 q 0,2.0625 -0.0625,2.6875 -0.0312,0.46875 -0.40625,0.78125 -0.4375,0.28125 -0.78125,0.3125 -0.625,0.0625 -1.625,0.0312 l -1.90625,-0.0625 -0.0937,-7.75 q -0.125,-7.71875 -0.4375,-8.3125 -0.1875,-0.375 -0.1875,-0.53125 0,-0.15625 0.1875,-0.34375 0.21875,-0.21875 1.6875,-0.625 1.375,-0.375 2.15625,-0.375 0.5625,-0.0312 0.78125,0.0937 0.21875,0.125 0.53125,0.53125 0.4375,0.71875 0.5625,1.03125 0.40625,1 0.5625,1.4375 0.34375,1.03125 0.40625,1.15625 0.375,0.8125 1.84375,4.875 0.65625,1.78125 1.0625,1.78125 0.15625,-0.0625 0.34375,-0.1875 0.1875,-0.21875 0.8125,-1.78125 0.6875,-1.6875 1.28125,-3.21875 0.6875,-1.8125 0.71875,-1.875 0,-0.0312 0.71875,-1.9375 0.25,-0.75 0.75,-1.25 0.40625,-0.40625 1.3125,-0.6875 z"
       style="font-style:normal;font-variant:normal;font-weight:normal;font-stretch:normal;font-size:32px;font-family:p5hatty;-inkscape-font-specification:'p5hatty, Normal';font-variant-ligatures:normal;font-variant-caps:normal;font-variant-numeric:normal;font-feature-settings:normal;text-align:start;writing-mode:lr-tb;text-anchor:start"
       id="path868" />
    <path
       d="m 210.67514,186.05003 q 0.6875,-0.34375 2.6875,-0.34375 2,0 2.6875,0.25 0.875,0.375 1.6875,1.15625 0.84375,0.8125 1.21875,1.59375 0.53125,1.09375 0.53125,2.8125 0,1.5625 -0.59375,2.84375 -1.4375,3.25 -5.65625,3.25 -1.9375,0 -3.40625,-0.9375 -1.46875,-0.9375 -2.0625,-2.53125 -0.5,-1.34375 -0.46875,-2.6875 0.0312,-1.4375 0.53125,-2.5 0.4375,-0.96875 1.21875,-1.75 0.75,-0.75 1.625,-1.15625 z m 3.71875,2.21875 q -0.5625,-0.59375 -0.875,-0.65625 -0.28125,-0.0625 -0.84375,0.40625 -1.1875,0.90625 -1.1875,3.59375 0,1.15625 0.28125,2.125 0.25,0.8125 0.84375,1.375 1.125,1 2.125,-0.71875 0.78125,-1.34375 0.6875,-3.1875 -0.0937,-1.875 -1.03125,-2.9375 z"
       style="font-style:normal;font-variant:normal;font-weight:normal;font-stretch:normal;font-size:32px;font-family:p5hatty;-inkscape-font-specification:'p5hatty, Normal';font-variant-ligatures:normal;font-variant-caps:normal;font-variant-numeric:normal;font-feature-settings:normal;text-align:start;writing-mode:lr-tb;text-anchor:start"
       id="path870" />
    <path
       d="m 224.92514,187.64378 q 0.15625,0.46875 0.4375,1.09375 0.40625,0.90625 0.40625,1.15625 0,0.375 0.4375,1 0.25,0.34375 0.375,0.5 0.15625,0.15625 0.25,0.125 0.15625,-0.0312 1.03125,-1.90625 0.84375,-1.8125 0.84375,-2.15625 0,-0.5 0.625,-0.90625 0.6875,-0.4375 1.34375,-0.4375 1.15625,0 1.25,0.5625 0.0937,0.53125 -0.875,2.46875 -0.25,0.53125 -1.5625,3.46875 -1.65625,3.71875 -2.09375,4.34375 -0.46875,0.65625 -1.5,0.65625 -0.34375,0 -0.5,-0.0312 -0.0937,-0.0312 -0.21875,-0.0625 -0.125,-0.0625 -0.1875,-0.0625 -0.1875,-0.0312 -0.34375,-0.15625 -0.0312,-0.0312 -0.15625,-0.0937 -0.125,-0.0625 -0.15625,-0.0937 -0.125,-0.0937 -0.1875,-0.28125 -0.0625,-0.1875 -0.0625,-0.25 0,-0.25 -0.6875,-1.71875 -3.25,-7.1875 -3.34375,-7.9375 -0.0312,-0.1875 0.0312,-0.3125 0.0625,-0.125 0.21875,-0.1875 0.25,-0.0937 0.5625,-0.125 0.65625,-0.0937 1.90625,-0.15625 0.6875,-0.0312 1,0.0625 0.1875,0.0625 0.59375,0.5625 0.5625,0.65625 0.5625,0.875 z"
       style="font-style:normal;font-variant:normal;font-weight:normal;font-stretch:normal;font-size:32px;font-family:p5hatty;-inkscape-font-specification:'p5hatty, Normal';font-variant-ligatures:normal;font-variant-caps:normal;font-variant-numeric:normal;font-feature-settings:normal;text-align:start;writing-mode:lr-tb;text-anchor:start"
       id="path872" />
    <path
       d="m 236.48764,185.67503 q 0.625,-0.21875 2.53125,-0.15625 1.8125,0.0312 2.375,0.28125 1.3125,0.53125 2.21875,1.875 0.84375,1.25 1,3 0.0625,1.28125 -0.1875,1.5625 -0.375,0.375 -2.6875,0.375 h -0.96875 q -3.34375,0 -3.6875,0.3125 -0.28125,0.28125 0.1875,1.0625 1.34375,2.5625 3.9375,0.84375 1.5,-1.03125 1.84375,-1.15625 0.21875,-0.0625 0.75,0.1875 0.875,0.5 0.5,1.34375 -0.34375,0.78125 -1.9375,1.75 -0.65625,0.375 -1.1875,0.46875 -0.5,0.0937 -2.28125,0.0937 -2.46875,0 -3.0625,-0.1875 -0.6875,-0.15625 -1.6875,-1.1875 -0.9375,-0.96875 -1.1875,-1.78125 -0.5625,-1.96875 -0.34375,-3.6875 0.21875,-1.75 1.1875,-3.03125 1.15625,-1.5 2.6875,-1.96875 z m 3.0625,2.40625 q -0.71875,-0.46875 -1.5625,-0.15625 -0.3125,0.125 -0.6875,1.09375 -0.375,0.96875 -0.1875,1.125 0.1875,0.1875 1.59375,0.1875 1.40625,0 1.625,-0.21875 0.21875,-0.21875 -0.0625,-0.96875 -0.28125,-0.78125 -0.71875,-1.0625 z"
       style="font-style:normal;font-variant:normal;font-weight:normal;font-stretch:normal;font-size:32px;font-family:p5hatty;-inkscape-font-specification:'p5hatty, Normal';font-variant-ligatures:normal;font-variant-caps:normal;font-variant-numeric:normal;font-feature-settings:normal;text-align:start;writing-mode:lr-tb;text-anchor:start"
       id="path874" />
    <path
       d="m 266.11264,179.51878 q 2,-0.53125 2.4375,-0.5 0.53125,0.0625 0.8125,0.71875 0.3125,0.84375 0.3125,8 0,5.5 -0.15625,7.375 -0.125,1.65625 -0.59375,2.03125 -0.4375,0.28125 -2,0.28125 -1.65625,0 -2.0625,-0.21875 -0.15625,-0.0937 -0.53125,-0.625 -0.25,-0.34375 -0.6875,-1.09375 -0.4375,-0.75 -0.6875,-1.15625 -0.0937,-0.15625 -0.21875,-0.3125 -0.0937,-0.1875 -0.125,-0.28125 l -0.0625,-0.0937 q -0.25,-0.4375 -0.46875,-0.875 -0.4375,-0.90625 -1.65625,-3.21875 -0.84375,-1.59375 -1.09375,-1.9375 -0.46875,-0.46875 -0.625,0.1875 -0.125,0.65625 -0.125,4.1875 v 4.375 l -0.53125,0.5625 q -0.375,0.375 -0.71875,0.40625 -0.5625,0.0625 -1.71875,0.0312 l -1.9375,-0.0625 -0.1875,-7.84375 q -0.0937,-7.625 -0.1875,-8.5625 l -0.0625,-0.75 2.09375,-0.5 q 0.375,-0.0625 0.59375,-0.15625 1.65625,-0.4375 2.3125,0.28125 0.625,0.65625 3.125,5.4375 0.1875,0.34375 0.5,0.9375 0.3125,0.59375 0.4375,0.84375 0.9375,1.8125 1.4375,2.53125 0.5625,0.8125 0.78125,0.71875 0.25,-0.0625 0.15625,-4.125 -0.0312,-4.0625 -0.4375,-4.75 -0.375,-0.71875 0,-1.09375 0.3125,-0.34375 1.875,-0.75 z"
       style="font-style:normal;font-variant:normal;font-weight:normal;font-stretch:normal;font-size:32px;font-family:p5hatty;-inkscape-font-specification:'p5hatty, Normal';font-variant-ligatures:normal;font-variant-caps:normal;font-variant-numeric:normal;font-feature-settings:normal;text-align:start;writing-mode:lr-tb;text-anchor:start"
       id="path876" />
    <path
       d="m 273.92514,185.67503 q 0.65625,-0.15625 3.03125,-0.1875 1.625,0 2.1875,0.0937 0.625,0.0937 1.3125,0.40625 1.09375,0.5625 1.59375,1.4375 0.375,0.65625 0.46875,1.34375 0.0625,0.5625 0.125,3.84375 0.0937,4.25 -0.125,4.53125 -0.15625,0.28125 -2.375,0.25 -2.28125,-0.0625 -3.25,0.21875 -1.15625,0.28125 -2.53125,0.1875 -1.53125,-0.0937 -2.3125,-0.53125 -1.40625,-0.6875 -1.71875,-2.0625 -0.34375,-1.4375 0.59375,-2.6875 0.6875,-0.90625 1.4375,-1.28125 0.78125,-0.34375 1.09375,-0.5625 0.5,-0.1875 2,-0.40625 1.59375,-0.21875 2.1875,-0.53125 0.5625,-0.28125 0.5625,-0.90625 0,-0.34375 -0.15625,-0.59375 -0.15625,-0.25 -0.53125,-0.34375 -0.375,-0.0937 -0.9375,-0.0937 -0.9375,0 -1.28125,0.21875 -0.375,0.21875 -0.96875,1.15625 -0.5625,0.84375 -0.78125,0.96875 -0.25,0.15625 -0.96875,0.15625 -0.9375,0 -1.4375,-0.34375 -0.4375,-0.3125 -0.4375,-1.0625 0,-1.125 0.84375,-1.96875 0.8125,-0.8125 2.375,-1.25 z m 4.34375,7.34375 q 0.0625,-0.46875 -0.0312,-0.59375 -0.125,-0.1875 -0.4375,-0.21875 -0.28125,-0.0312 -0.84375,0.1875 -0.53125,0.21875 -0.78125,0.21875 -0.90625,0 -1.3125,1 -0.4375,1.0625 0.21875,1.71875 0.40625,0.40625 0.71875,0.40625 0.3125,0 0.96875,-0.46875 1.40625,-0.9375 1.5,-2.25 z"
       style="font-style:normal;font-variant:normal;font-weight:normal;font-stretch:normal;font-size:32px;font-family:p5hatty;-inkscape-font-specification:'p5hatty, Normal';font-variant-ligatures:normal;font-variant-caps:normal;font-variant-numeric:normal;font-feature-settings:normal;text-align:start;writing-mode:lr-tb;text-anchor:start"
       id="path878" />
    <path
       d="m 285.08139,186.14378 q 0.71875,-0.125 3.28125,-0.125 2.375,0.0625 2.875,0.375 0.46875,0.34375 0.96875,0.34375 0.40625,0 1.34375,-0.4375 1.125,-0.46875 2.5,-0.375 1.375,0.0937 2.15625,0.75 1.09375,0.84375 1.375,1.875 0.3125,1.03125 0.34375,4.21875 v 0.25 q 0.0625,3.46875 -0.25,4.0625 -0.28125,0.5625 -2.09375,0.5 h -0.0937 l -1.8125,-0.0625 -0.0625,-4.28125 q -0.0312,-3.15625 -0.21875,-4.09375 -0.15625,-0.75 -0.75,-0.65625 -0.4375,0.0312 -0.59375,0.84375 -0.0937,0.59375 -0.15625,3.78125 v 0.21875 q -0.0625,3.15625 -0.3125,3.65625 -0.28125,0.53125 -2.03125,0.53125 h -0.0937 -1.875 l -0.0937,-4.375 q -0.0312,-2.71875 -0.15625,-3.65625 -0.0937,-0.8125 -0.28125,-0.9375 -0.375,-0.21875 -0.8125,0.15625 -0.3125,0.28125 -0.34375,0.90625 -0.0625,0.8125 -0.0625,3.3125 v 0.21875 q 0,3.3125 -0.3125,3.9375 -0.28125,0.5625 -2.09375,0.5 h -0.125 l -1.78125,-0.0625 v -4.5 q 0,-4.53125 -0.1875,-5.375 -0.125,-0.5 -0.0625,-0.75 0.0312,-0.1875 0.375,-0.375 0.4375,-0.25 1.4375,-0.375 z"
       style="font-style:normal;font-variant:normal;font-weight:normal;font-stretch:normal;font-size:32px;font-family:p5hatty;-inkscape-font-specification:'p5hatty, Normal';font-variant-ligatures:normal;font-variant-caps:normal;font-variant-numeric:normal;font-feature-settings:normal;text-align:start;writing-mode:lr-tb;text-anchor:start"
       id="path880" />
    <path
       d="m 304.42514,185.67503 q 0.625,-0.21875 2.53125,-0.15625 1.8125,0.0312 2.375,0.28125 1.3125,0.53125 2.21875,1.875 0.84375,1.25 1,3 0.0625,1.28125 -0.1875,1.5625 -0.375,0.375 -2.6875,0.375 h -0.96875 q -3.34375,0 -3.6875,0.3125 -0.28125,0.28125 0.1875,1.0625 1.34375,2.5625 3.9375,0.84375 1.5,-1.03125 1.84375,-1.15625 0.21875,-0.0625 0.75,0.1875 0.875,0.5 0.5,1.34375 -0.34375,0.78125 -1.9375,1.75 -0.65625,0.375 -1.1875,0.46875 -0.5,0.0937 -2.28125,0.0937 -2.46875,0 -3.0625,-0.1875 -0.6875,-0.15625 -1.6875,-1.1875 -0.9375,-0.96875 -1.1875,-1.78125 -0.5625,-1.96875 -0.34375,-3.6875 0.21875,-1.75 1.1875,-3.03125 1.15625,-1.5 2.6875,-1.96875 z m 3.0625,2.40625 q -0.71875,-0.46875 -1.5625,-0.15625 -0.3125,0.125 -0.6875,1.09375 -0.375,0.96875 -0.1875,1.125 0.1875,0.1875 1.59375,0.1875 1.40625,0 1.625,-0.21875 0.21875,-0.21875 -0.0625,-0.96875 -0.28125,-0.78125 -0.71875,-1.0625 z"
       style="font-style:normal;font-variant:normal;font-weight:normal;font-stretch:normal;font-size:32px;font-family:p5hatty;-inkscape-font-specification:'p5hatty, Normal';font-variant-ligatures:normal;font-variant-caps:normal;font-variant-numeric:normal;font-feature-settings:normal;text-align:start;writing-mode:lr-tb;text-anchor:start"
       id="path882" />
  </g>
  <g
     aria-label="Move Name"
     inkscape:transform-center-x="44.314022"
     inkscape:transform-center-y="2.0853658"
     style="font-style:normal;font-variant:normal;font-weight:500;font-stretch:normal;font-size:53.33333206px;line-height:1.25;font-family:'Goodbye Despair';-inkscape-font-specification:'Goodbye Despair, Medium';font-variant-ligatures:normal;font-variant-caps:normal;font-variant-numeric:normal;font-feature-settings:normal;text-align:start;letter-spacing:0px;word-spacing:0px;writing-mode:lr-tb;text-anchor:start;fill:#000000;fill-opacity:1;stroke:none"
     id="text868-5-9">
    <path
       d="m 52.976215,274.73679 q 1.03125,-0.3125 1.875,-0.3125 0.78125,0 1,0.40625 0.21875,0.375 0.15625,8.78125 l -0.0625,8.40625 -0.5,0.40625 q -0.375,0.28125 -0.75,0.3125 -0.625,0.0625 -1.65625,0.0312 l -1.875,-0.0625 0.0625,-3.84375 q 0.09375,-3.8125 -0.09375,-3.8125 -0.21875,0 -0.9375,1.46875 -0.625,1.3125 -1.15625,2.71875 -0.5,1.375 -0.84375,1.71875 -0.40625,0.40625 -1.21875,0.40625 -0.71875,0 -1.125,-0.34375 -0.375,-0.3125 -0.78125,-1.4375 -0.3125,-0.9375 -1.09375,-2.5625 -0.65625,-1.3125 -0.84375,-1.34375 -0.3125,0 -0.375,2.59375 v 0.6875 q 0,2.0625 -0.0625,2.6875 -0.03125,0.46875 -0.40625,0.78125 -0.4375,0.28125 -0.78125,0.3125 -0.625,0.0625 -1.625,0.0312 l -1.90625,-0.0625 -0.09375,-7.75 q -0.125,-7.71875 -0.4375,-8.3125 -0.1875,-0.375 -0.1875,-0.53125 0,-0.15625 0.1875,-0.34375 0.21875,-0.21875 1.6875,-0.625 1.375,-0.375 2.15625,-0.375 0.5625,-0.0312 0.78125,0.0937 0.21875,0.125 0.53125,0.53125 0.4375,0.71875 0.5625,1.03125 0.40625,1 0.5625,1.4375 0.34375,1.03125 0.40625,1.15625 0.375,0.8125 1.84375,4.875 0.65625,1.78125 1.0625,1.78125 0.15625,-0.0625 0.34375,-0.1875 0.1875,-0.21875 0.8125,-1.78125 0.6875,-1.6875 1.28125,-3.21875 0.6875,-1.8125 0.71875,-1.875 0,-0.0312 0.71875,-1.9375 0.25,-0.75 0.75,-1.25 0.40625,-0.40625 1.3125,-0.6875 z"
       style="font-style:normal;font-variant:normal;font-weight:normal;font-stretch:normal;font-size:32px;font-family:p5hatty;-inkscape-font-specification:'p5hatty, Normal';font-variant-ligatures:normal;font-variant-caps:normal;font-variant-numeric:normal;font-feature-settings:normal;text-align:start;writing-mode:lr-tb;text-anchor:start"
       id="path923" />
    <path
       d="m 60.007465,281.45554 q 0.6875,-0.34375 2.6875,-0.34375 2,0 2.6875,0.25 0.875,0.375 1.6875,1.15625 0.84375,0.8125 1.21875,1.59375 0.53125,1.09375 0.53125,2.8125 0,1.5625 -0.59375,2.84375 -1.4375,3.25 -5.65625,3.25 -1.9375,0 -3.40625,-0.9375 -1.46875,-0.9375 -2.0625,-2.53125 -0.5,-1.34375 -0.46875,-2.6875 0.03125,-1.4375 0.53125,-2.5 0.4375,-0.96875 1.21875,-1.75 0.75,-0.75 1.625,-1.15625 z m 3.71875,2.21875 q -0.5625,-0.59375 -0.875,-0.65625 -0.28125,-0.0625 -0.84375,0.40625 -1.1875,0.90625 -1.1875,3.59375 0,1.15625 0.28125,2.125 0.25,0.8125 0.84375,1.375 1.125,1 2.125,-0.71875 0.78125,-1.34375 0.6875,-3.1875 -0.09375,-1.875 -1.03125,-2.9375 z"
       style="font-style:normal;font-variant:normal;font-weight:normal;font-stretch:normal;font-size:32px;font-family:p5hatty;-inkscape-font-specification:'p5hatty, Normal';font-variant-ligatures:normal;font-variant-caps:normal;font-variant-numeric:normal;font-feature-settings:normal;text-align:start;writing-mode:lr-tb;text-anchor:start"
       id="path925" />
    <path
       d="m 74.257465,283.04929 q 0.15625,0.46875 0.4375,1.09375 0.40625,0.90625 0.40625,1.15625 0,0.375 0.4375,1 0.25,0.34375 0.375,0.5 0.15625,0.15625 0.25,0.125 0.15625,-0.0312 1.03125,-1.90625 0.84375,-1.8125 0.84375,-2.15625 0,-0.5 0.625,-0.90625 0.6875,-0.4375 1.34375,-0.4375 1.15625,0 1.25,0.5625 0.09375,0.53125 -0.875,2.46875 -0.25,0.53125 -1.5625,3.46875 -1.65625,3.71875 -2.09375,4.34375 -0.46875,0.65625 -1.5,0.65625 -0.34375,0 -0.5,-0.0312 -0.09375,-0.0312 -0.21875,-0.0625 -0.125,-0.0625 -0.1875,-0.0625 -0.1875,-0.0312 -0.34375,-0.15625 -0.03125,-0.0312 -0.15625,-0.0937 -0.125,-0.0625 -0.15625,-0.0937 -0.125,-0.0937 -0.1875,-0.28125 -0.0625,-0.1875 -0.0625,-0.25 0,-0.25 -0.6875,-1.71875 -3.25,-7.1875 -3.34375,-7.9375 -0.03125,-0.1875 0.03125,-0.3125 0.0625,-0.125 0.21875,-0.1875 0.25,-0.0937 0.5625,-0.125 0.65625,-0.0937 1.90625,-0.15625 0.6875,-0.0312 1,0.0625 0.1875,0.0625 0.59375,0.5625 0.5625,0.65625 0.5625,0.875 z"
       style="font-style:normal;font-variant:normal;font-weight:normal;font-stretch:normal;font-size:32px;font-family:p5hatty;-inkscape-font-specification:'p5hatty, Normal';font-variant-ligatures:normal;font-variant-caps:normal;font-variant-numeric:normal;font-feature-settings:normal;text-align:start;writing-mode:lr-tb;text-anchor:start"
       id="path927" />
    <path
       d="m 85.819965,281.08054 q 0.625,-0.21875 2.53125,-0.15625 1.8125,0.0312 2.375,0.28125 1.3125,0.53125 2.21875,1.875 0.84375,1.25 1,3 0.0625,1.28125 -0.1875,1.5625 -0.375,0.375 -2.6875,0.375 h -0.96875 q -3.34375,0 -3.6875,0.3125 -0.28125,0.28125 0.1875,1.0625 1.34375,2.5625 3.9375,0.84375 1.5,-1.03125 1.84375,-1.15625 0.21875,-0.0625 0.75,0.1875 0.875,0.5 0.5,1.34375 -0.34375,0.78125 -1.9375,1.75 -0.65625,0.375 -1.1875,0.46875 -0.5,0.0937 -2.28125,0.0937 -2.46875,0 -3.0625,-0.1875 -0.6875,-0.15625 -1.6875,-1.1875 -0.9375,-0.96875 -1.1875,-1.78125 -0.5625,-1.96875 -0.34375,-3.6875 0.21875,-1.75 1.1875,-3.03125 1.15625,-1.5 2.6875,-1.96875 z m 3.0625,2.40625 q -0.71875,-0.46875 -1.5625,-0.15625 -0.3125,0.125 -0.6875,1.09375 -0.375,0.96875 -0.1875,1.125 0.1875,0.1875 1.59375,0.1875 1.40625,0 1.625,-0.21875 0.21875,-0.21875 -0.0625,-0.96875 -0.28125,-0.78125 -0.71875,-1.0625 z"
       style="font-style:normal;font-variant:normal;font-weight:normal;font-stretch:normal;font-size:32px;font-family:p5hatty;-inkscape-font-specification:'p5hatty, Normal';font-variant-ligatures:normal;font-variant-caps:normal;font-variant-numeric:normal;font-feature-settings:normal;text-align:start;writing-mode:lr-tb;text-anchor:start"
       id="path929" />
    <path
       d="m 115.44497,274.92429 q 2,-0.53125 2.4375,-0.5 0.53125,0.0625 0.8125,0.71875 0.3125,0.84375 0.3125,8 0,5.5 -0.15625,7.375 -0.125,1.65625 -0.59375,2.03125 -0.4375,0.28125 -2,0.28125 -1.65625,0 -2.0625,-0.21875 -0.15625,-0.0937 -0.53125,-0.625 -0.25,-0.34375 -0.6875,-1.09375 -0.4375,-0.75 -0.6875,-1.15625 -0.0937,-0.15625 -0.21875,-0.3125 -0.0937,-0.1875 -0.125,-0.28125 l -0.0625,-0.0937 q -0.25,-0.4375 -0.46875,-0.875 -0.4375,-0.90625 -1.65625,-3.21875 -0.84375,-1.59375 -1.09375,-1.9375 -0.46875,-0.46875 -0.625,0.1875 -0.125,0.65625 -0.125,4.1875 v 4.375 l -0.53125,0.5625 q -0.375,0.375 -0.71875,0.40625 -0.5625,0.0625 -1.71875,0.0312 l -1.9375,-0.0625 -0.1875,-7.84375 q -0.0937,-7.625 -0.1875,-8.5625 l -0.0625,-0.75 2.09375,-0.5 q 0.375,-0.0625 0.59375,-0.15625 1.65625,-0.4375 2.3125,0.28125 0.625,0.65625 3.125,5.4375 0.1875,0.34375 0.5,0.9375 0.3125,0.59375 0.4375,0.84375 0.9375,1.8125 1.4375,2.53125 0.5625,0.8125 0.78125,0.71875 0.25,-0.0625 0.15625,-4.125 -0.0312,-4.0625 -0.4375,-4.75 -0.375,-0.71875 0,-1.09375 0.3125,-0.34375 1.875,-0.75 z"
       style="font-style:normal;font-variant:normal;font-weight:normal;font-stretch:normal;font-size:32px;font-family:p5hatty;-inkscape-font-specification:'p5hatty, Normal';font-variant-ligatures:normal;font-variant-caps:normal;font-variant-numeric:normal;font-feature-settings:normal;text-align:start;writing-mode:lr-tb;text-anchor:start"
       id="path931" />
    <path
       d="m 123.25747,281.08054 q 0.65625,-0.15625 3.03125,-0.1875 1.625,0 2.1875,0.0937 0.625,0.0937 1.3125,0.40625 1.09375,0.5625 1.59375,1.4375 0.375,0.65625 0.46875,1.34375 0.0625,0.5625 0.125,3.84375 0.0937,4.25 -0.125,4.53125 -0.15625,0.28125 -2.375,0.25 -2.28125,-0.0625 -3.25,0.21875 -1.15625,0.28125 -2.53125,0.1875 -1.53125,-0.0937 -2.3125,-0.53125 -1.40625,-0.6875 -1.71875,-2.0625 -0.34375,-1.4375 0.59375,-2.6875 0.6875,-0.90625 1.4375,-1.28125 0.78125,-0.34375 1.09375,-0.5625 0.5,-0.1875 2,-0.40625 1.59375,-0.21875 2.1875,-0.53125 0.5625,-0.28125 0.5625,-0.90625 0,-0.34375 -0.15625,-0.59375 -0.15625,-0.25 -0.53125,-0.34375 -0.375,-0.0937 -0.9375,-0.0937 -0.9375,0 -1.28125,0.21875 -0.375,0.21875 -0.96875,1.15625 -0.5625,0.84375 -0.78125,0.96875 -0.25,0.15625 -0.96875,0.15625 -0.9375,0 -1.4375,-0.34375 -0.4375,-0.3125 -0.4375,-1.0625 0,-1.125 0.84375,-1.96875 0.8125,-0.8125 2.375,-1.25 z m 4.34375,7.34375 q 0.0625,-0.46875 -0.0312,-0.59375 -0.125,-0.1875 -0.4375,-0.21875 -0.28125,-0.0312 -0.84375,0.1875 -0.53125,0.21875 -0.78125,0.21875 -0.90625,0 -1.3125,1 -0.4375,1.0625 0.21875,1.71875 0.40625,0.40625 0.71875,0.40625 0.3125,0 0.96875,-0.46875 1.40625,-0.9375 1.5,-2.25 z"
       style="font-style:normal;font-variant:normal;font-weight:normal;font-stretch:normal;font-size:32px;font-family:p5hatty;-inkscape-font-specification:'p5hatty, Normal';font-variant-ligatures:normal;font-variant-caps:normal;font-variant-numeric:normal;font-feature-settings:normal;text-align:start;writing-mode:lr-tb;text-anchor:start"
       id="path933" />
    <path
       d="m 134.41372,281.54929 q 0.71875,-0.125 3.28125,-0.125 2.375,0.0625 2.875,0.375 0.46875,0.34375 0.96875,0.34375 0.40625,0 1.34375,-0.4375 1.125,-0.46875 2.5,-0.375 1.375,0.0937 2.15625,0.75 1.09375,0.84375 1.375,1.875 0.3125,1.03125 0.34375,4.21875 v 0.25 q 0.0625,3.46875 -0.25,4.0625 -0.28125,0.5625 -2.09375,0.5 h -0.0937 l -1.8125,-0.0625 -0.0625,-4.28125 q -0.0312,-3.15625 -0.21875,-4.09375 -0.15625,-0.75 -0.75,-0.65625 -0.4375,0.0312 -0.59375,0.84375 -0.0937,0.59375 -0.15625,3.78125 v 0.21875 q -0.0625,3.15625 -0.3125,3.65625 -0.28125,0.53125 -2.03125,0.53125 h -0.0937 -1.875 l -0.0937,-4.375 q -0.0312,-2.71875 -0.15625,-3.65625 -0.0937,-0.8125 -0.28125,-0.9375 -0.375,-0.21875 -0.8125,0.15625 -0.3125,0.28125 -0.34375,0.90625 -0.0625,0.8125 -0.0625,3.3125 v 0.21875 q 0,3.3125 -0.3125,3.9375 -0.28125,0.5625 -2.09375,0.5 h -0.125 l -1.78125,-0.0625 v -4.5 q 0,-4.53125 -0.1875,-5.375 -0.125,-0.5 -0.0625,-0.75 0.0312,-0.1875 0.375,-0.375 0.4375,-0.25 1.4375,-0.375 z"
       style="font-style:normal;font-variant:normal;font-weight:normal;font-stretch:normal;font-size:32px;font-family:p5hatty;-inkscape-font-specification:'p5hatty, Normal';font-variant-ligatures:normal;font-variant-caps:normal;font-variant-numeric:normal;font-feature-settings:normal;text-align:start;writing-mode:lr-tb;text-anchor:start"
       id="path935" />
    <path
       d="m 153.75747,281.08054 q 0.625,-0.21875 2.53125,-0.15625 1.8125,0.0312 2.375,0.28125 1.3125,0.53125 2.21875,1.875 0.84375,1.25 1,3 0.0625,1.28125 -0.1875,1.5625 -0.375,0.375 -2.6875,0.375 h -0.96875 q -3.34375,0 -3.6875,0.3125 -0.28125,0.28125 0.1875,1.0625 1.34375,2.5625 3.9375,0.84375 1.5,-1.03125 1.84375,-1.15625 0.21875,-0.0625 0.75,0.1875 0.875,0.5 0.5,1.34375 -0.34375,0.78125 -1.9375,1.75 -0.65625,0.375 -1.1875,0.46875 -0.5,0.0937 -2.28125,0.0937 -2.46875,0 -3.0625,-0.1875 -0.6875,-0.15625 -1.6875,-1.1875 -0.9375,-0.96875 -1.1875,-1.78125 -0.5625,-1.96875 -0.34375,-3.6875 0.21875,-1.75 1.1875,-3.03125 1.15625,-1.5 2.6875,-1.96875 z m 3.0625,2.40625 q -0.71875,-0.46875 -1.5625,-0.15625 -0.3125,0.125 -0.6875,1.09375 -0.375,0.96875 -0.1875,1.125 0.1875,0.1875 1.59375,0.1875 1.40625,0 1.625,-0.21875 0.21875,-0.21875 -0.0625,-0.96875 -0.28125,-0.78125 -0.71875,-1.0625 z"
       style="font-style:normal;font-variant:normal;font-weight:normal;font-stretch:normal;font-size:32px;font-family:p5hatty;-inkscape-font-specification:'p5hatty, Normal';font-variant-ligatures:normal;font-variant-caps:normal;font-variant-numeric:normal;font-feature-settings:normal;text-align:start;writing-mode:lr-tb;text-anchor:start"
       id="path937" />
  </g>
  <g
     aria-label="Move Name"
     inkscape:transform-center-x="44.314022"
     inkscape:transform-center-y="2.0853658"
     style="font-style:normal;font-variant:normal;font-weight:500;font-stretch:normal;font-size:53.33333206px;line-height:1.25;font-family:'Goodbye Despair';-inkscape-font-specification:'Goodbye Despair, Medium';font-variant-ligatures:normal;font-variant-caps:normal;font-variant-numeric:normal;font-feature-settings:normal;text-align:start;letter-spacing:0px;word-spacing:0px;writing-mode:lr-tb;text-anchor:start;fill:#000000;fill-opacity:1;stroke:none"
     id="text868-5-9-0">
    <path
       d="m 204.16524,276.82214 q 1.03125,-0.3125 1.875,-0.3125 0.78125,0 1,0.40625 0.21875,0.375 0.15625,8.78125 l -0.0625,8.40625 -0.5,0.40625 q -0.375,0.28125 -0.75,0.3125 -0.625,0.0625 -1.65625,0.0312 l -1.875,-0.0625 0.0625,-3.84375 q 0.0937,-3.8125 -0.0937,-3.8125 -0.21875,0 -0.9375,1.46875 -0.625,1.3125 -1.15625,2.71875 -0.5,1.375 -0.84375,1.71875 -0.40625,0.40625 -1.21875,0.40625 -0.71875,0 -1.125,-0.34375 -0.375,-0.3125 -0.78125,-1.4375 -0.3125,-0.9375 -1.09375,-2.5625 -0.65625,-1.3125 -0.84375,-1.34375 -0.3125,0 -0.375,2.59375 v 0.6875 q 0,2.0625 -0.0625,2.6875 -0.0312,0.46875 -0.40625,0.78125 -0.4375,0.28125 -0.78125,0.3125 -0.625,0.0625 -1.625,0.0312 l -1.90625,-0.0625 -0.0937,-7.75 q -0.125,-7.71875 -0.4375,-8.3125 -0.1875,-0.375 -0.1875,-0.53125 0,-0.15625 0.1875,-0.34375 0.21875,-0.21875 1.6875,-0.625 1.375,-0.375 2.15625,-0.375 0.5625,-0.0312 0.78125,0.0937 0.21875,0.125 0.53125,0.53125 0.4375,0.71875 0.5625,1.03125 0.40625,1 0.5625,1.4375 0.34375,1.03125 0.40625,1.15625 0.375,0.8125 1.84375,4.875 0.65625,1.78125 1.0625,1.78125 0.15625,-0.0625 0.34375,-0.1875 0.1875,-0.21875 0.8125,-1.78125 0.6875,-1.6875 1.28125,-3.21875 0.6875,-1.8125 0.71875,-1.875 0,-0.0312 0.71875,-1.9375 0.25,-0.75 0.75,-1.25 0.40625,-0.40625 1.3125,-0.6875 z"
       style="font-style:normal;font-variant:normal;font-weight:normal;font-stretch:normal;font-size:32px;font-family:p5hatty;-inkscape-font-specification:'p5hatty, Normal';font-variant-ligatures:normal;font-variant-caps:normal;font-variant-numeric:normal;font-feature-settings:normal;text-align:start;writing-mode:lr-tb;text-anchor:start"
       id="path906" />
    <path
       d="m 211.19649,283.54089 q 0.6875,-0.34375 2.6875,-0.34375 2,0 2.6875,0.25 0.875,0.375 1.6875,1.15625 0.84375,0.8125 1.21875,1.59375 0.53125,1.09375 0.53125,2.8125 0,1.5625 -0.59375,2.84375 -1.4375,3.25 -5.65625,3.25 -1.9375,0 -3.40625,-0.9375 -1.46875,-0.9375 -2.0625,-2.53125 -0.5,-1.34375 -0.46875,-2.6875 0.0312,-1.4375 0.53125,-2.5 0.4375,-0.96875 1.21875,-1.75 0.75,-0.75 1.625,-1.15625 z m 3.71875,2.21875 q -0.5625,-0.59375 -0.875,-0.65625 -0.28125,-0.0625 -0.84375,0.40625 -1.1875,0.90625 -1.1875,3.59375 0,1.15625 0.28125,2.125 0.25,0.8125 0.84375,1.375 1.125,1 2.125,-0.71875 0.78125,-1.34375 0.6875,-3.1875 -0.0937,-1.875 -1.03125,-2.9375 z"
       style="font-style:normal;font-variant:normal;font-weight:normal;font-stretch:normal;font-size:32px;font-family:p5hatty;-inkscape-font-specification:'p5hatty, Normal';font-variant-ligatures:normal;font-variant-caps:normal;font-variant-numeric:normal;font-feature-settings:normal;text-align:start;writing-mode:lr-tb;text-anchor:start"
       id="path908" />
    <path
       d="m 225.44649,285.13464 q 0.15625,0.46875 0.4375,1.09375 0.40625,0.90625 0.40625,1.15625 0,0.375 0.4375,1 0.25,0.34375 0.375,0.5 0.15625,0.15625 0.25,0.125 0.15625,-0.0312 1.03125,-1.90625 0.84375,-1.8125 0.84375,-2.15625 0,-0.5 0.625,-0.90625 0.6875,-0.4375 1.34375,-0.4375 1.15625,0 1.25,0.5625 0.0937,0.53125 -0.875,2.46875 -0.25,0.53125 -1.5625,3.46875 -1.65625,3.71875 -2.09375,4.34375 -0.46875,0.65625 -1.5,0.65625 -0.34375,0 -0.5,-0.0312 -0.0937,-0.0312 -0.21875,-0.0625 -0.125,-0.0625 -0.1875,-0.0625 -0.1875,-0.0312 -0.34375,-0.15625 -0.0312,-0.0312 -0.15625,-0.0937 -0.125,-0.0625 -0.15625,-0.0937 -0.125,-0.0937 -0.1875,-0.28125 -0.0625,-0.1875 -0.0625,-0.25 0,-0.25 -0.6875,-1.71875 -3.25,-7.1875 -3.34375,-7.9375 -0.0312,-0.1875 0.0312,-0.3125 0.0625,-0.125 0.21875,-0.1875 0.25,-0.0937 0.5625,-0.125 0.65625,-0.0937 1.90625,-0.15625 0.6875,-0.0312 1,0.0625 0.1875,0.0625 0.59375,0.5625 0.5625,0.65625 0.5625,0.875 z"
       style="font-style:normal;font-variant:normal;font-weight:normal;font-stretch:normal;font-size:32px;font-family:p5hatty;-inkscape-font-specification:'p5hatty, Normal';font-variant-ligatures:normal;font-variant-caps:normal;font-variant-numeric:normal;font-feature-settings:normal;text-align:start;writing-mode:lr-tb;text-anchor:start"
       id="path910" />
    <path
       d="m 237.00899,283.16589 q 0.625,-0.21875 2.53125,-0.15625 1.8125,0.0312 2.375,0.28125 1.3125,0.53125 2.21875,1.875 0.84375,1.25 1,3 0.0625,1.28125 -0.1875,1.5625 -0.375,0.375 -2.6875,0.375 h -0.96875 q -3.34375,0 -3.6875,0.3125 -0.28125,0.28125 0.1875,1.0625 1.34375,2.5625 3.9375,0.84375 1.5,-1.03125 1.84375,-1.15625 0.21875,-0.0625 0.75,0.1875 0.875,0.5 0.5,1.34375 -0.34375,0.78125 -1.9375,1.75 -0.65625,0.375 -1.1875,0.46875 -0.5,0.0937 -2.28125,0.0937 -2.46875,0 -3.0625,-0.1875 -0.6875,-0.15625 -1.6875,-1.1875 -0.9375,-0.96875 -1.1875,-1.78125 -0.5625,-1.96875 -0.34375,-3.6875 0.21875,-1.75 1.1875,-3.03125 1.15625,-1.5 2.6875,-1.96875 z m 3.0625,2.40625 q -0.71875,-0.46875 -1.5625,-0.15625 -0.3125,0.125 -0.6875,1.09375 -0.375,0.96875 -0.1875,1.125 0.1875,0.1875 1.59375,0.1875 1.40625,0 1.625,-0.21875 0.21875,-0.21875 -0.0625,-0.96875 -0.28125,-0.78125 -0.71875,-1.0625 z"
       style="font-style:normal;font-variant:normal;font-weight:normal;font-stretch:normal;font-size:32px;font-family:p5hatty;-inkscape-font-specification:'p5hatty, Normal';font-variant-ligatures:normal;font-variant-caps:normal;font-variant-numeric:normal;font-feature-settings:normal;text-align:start;writing-mode:lr-tb;text-anchor:start"
       id="path912" />
    <path
       d="m 266.63399,277.00964 q 2,-0.53125 2.4375,-0.5 0.53125,0.0625 0.8125,0.71875 0.3125,0.84375 0.3125,8 0,5.5 -0.15625,7.375 -0.125,1.65625 -0.59375,2.03125 -0.4375,0.28125 -2,0.28125 -1.65625,0 -2.0625,-0.21875 -0.15625,-0.0937 -0.53125,-0.625 -0.25,-0.34375 -0.6875,-1.09375 -0.4375,-0.75 -0.6875,-1.15625 -0.0937,-0.15625 -0.21875,-0.3125 -0.0937,-0.1875 -0.125,-0.28125 l -0.0625,-0.0937 q -0.25,-0.4375 -0.46875,-0.875 -0.4375,-0.90625 -1.65625,-3.21875 -0.84375,-1.59375 -1.09375,-1.9375 -0.46875,-0.46875 -0.625,0.1875 -0.125,0.65625 -0.125,4.1875 v 4.375 l -0.53125,0.5625 q -0.375,0.375 -0.71875,0.40625 -0.5625,0.0625 -1.71875,0.0312 l -1.9375,-0.0625 -0.1875,-7.84375 q -0.0937,-7.625 -0.1875,-8.5625 l -0.0625,-0.75 2.09375,-0.5 q 0.375,-0.0625 0.59375,-0.15625 1.65625,-0.4375 2.3125,0.28125 0.625,0.65625 3.125,5.4375 0.1875,0.34375 0.5,0.9375 0.3125,0.59375 0.4375,0.84375 0.9375,1.8125 1.4375,2.53125 0.5625,0.8125 0.78125,0.71875 0.25,-0.0625 0.15625,-4.125 -0.0312,-4.0625 -0.4375,-4.75 -0.375,-0.71875 0,-1.09375 0.3125,-0.34375 1.875,-0.75 z"
       style="font-style:normal;font-variant:normal;font-weight:normal;font-stretch:normal;font-size:32px;font-family:p5hatty;-inkscape-font-specification:'p5hatty, Normal';font-variant-ligatures:normal;font-variant-caps:normal;font-variant-numeric:normal;font-feature-settings:normal;text-align:start;writing-mode:lr-tb;text-anchor:start"
       id="path914" />
    <path
       d="m 274.44649,283.16589 q 0.65625,-0.15625 3.03125,-0.1875 1.625,0 2.1875,0.0937 0.625,0.0937 1.3125,0.40625 1.09375,0.5625 1.59375,1.4375 0.375,0.65625 0.46875,1.34375 0.0625,0.5625 0.125,3.84375 0.0937,4.25 -0.125,4.53125 -0.15625,0.28125 -2.375,0.25 -2.28125,-0.0625 -3.25,0.21875 -1.15625,0.28125 -2.53125,0.1875 -1.53125,-0.0937 -2.3125,-0.53125 -1.40625,-0.6875 -1.71875,-2.0625 -0.34375,-1.4375 0.59375,-2.6875 0.6875,-0.90625 1.4375,-1.28125 0.78125,-0.34375 1.09375,-0.5625 0.5,-0.1875 2,-0.40625 1.59375,-0.21875 2.1875,-0.53125 0.5625,-0.28125 0.5625,-0.90625 0,-0.34375 -0.15625,-0.59375 -0.15625,-0.25 -0.53125,-0.34375 -0.375,-0.0937 -0.9375,-0.0937 -0.9375,0 -1.28125,0.21875 -0.375,0.21875 -0.96875,1.15625 -0.5625,0.84375 -0.78125,0.96875 -0.25,0.15625 -0.96875,0.15625 -0.9375,0 -1.4375,-0.34375 -0.4375,-0.3125 -0.4375,-1.0625 0,-1.125 0.84375,-1.96875 0.8125,-0.8125 2.375,-1.25 z m 4.34375,7.34375 q 0.0625,-0.46875 -0.0312,-0.59375 -0.125,-0.1875 -0.4375,-0.21875 -0.28125,-0.0312 -0.84375,0.1875 -0.53125,0.21875 -0.78125,0.21875 -0.90625,0 -1.3125,1 -0.4375,1.0625 0.21875,1.71875 0.40625,0.40625 0.71875,0.40625 0.3125,0 0.96875,-0.46875 1.40625,-0.9375 1.5,-2.25 z"
       style="font-style:normal;font-variant:normal;font-weight:normal;font-stretch:normal;font-size:32px;font-family:p5hatty;-inkscape-font-specification:'p5hatty, Normal';font-variant-ligatures:normal;font-variant-caps:normal;font-variant-numeric:normal;font-feature-settings:normal;text-align:start;writing-mode:lr-tb;text-anchor:start"
       id="path916" />
    <path
       d="m 285.60274,283.63464 q 0.71875,-0.125 3.28125,-0.125 2.375,0.0625 2.875,0.375 0.46875,0.34375 0.96875,0.34375 0.40625,0 1.34375,-0.4375 1.125,-0.46875 2.5,-0.375 1.375,0.0937 2.15625,0.75 1.09375,0.84375 1.375,1.875 0.3125,1.03125 0.34375,4.21875 v 0.25 q 0.0625,3.46875 -0.25,4.0625 -0.28125,0.5625 -2.09375,0.5 h -0.0937 l -1.8125,-0.0625 -0.0625,-4.28125 q -0.0312,-3.15625 -0.21875,-4.09375 -0.15625,-0.75 -0.75,-0.65625 -0.4375,0.0312 -0.59375,0.84375 -0.0937,0.59375 -0.15625,3.78125 v 0.21875 q -0.0625,3.15625 -0.3125,3.65625 -0.28125,0.53125 -2.03125,0.53125 h -0.0937 -1.875 l -0.0937,-4.375 q -0.0312,-2.71875 -0.15625,-3.65625 -0.0937,-0.8125 -0.28125,-0.9375 -0.375,-0.21875 -0.8125,0.15625 -0.3125,0.28125 -0.34375,0.90625 -0.0625,0.8125 -0.0625,3.3125 v 0.21875 q 0,3.3125 -0.3125,3.9375 -0.28125,0.5625 -2.09375,0.5 h -0.125 l -1.78125,-0.0625 v -4.5 q 0,-4.53125 -0.1875,-5.375 -0.125,-0.5 -0.0625,-0.75 0.0312,-0.1875 0.375,-0.375 0.4375,-0.25 1.4375,-0.375 z"
       style="font-style:normal;font-variant:normal;font-weight:normal;font-stretch:normal;font-size:32px;font-family:p5hatty;-inkscape-font-specification:'p5hatty, Normal';font-variant-ligatures:normal;font-variant-caps:normal;font-variant-numeric:normal;font-feature-settings:normal;text-align:start;writing-mode:lr-tb;text-anchor:start"
       id="path918" />
    <path
       d="m 304.94649,283.16589 q 0.625,-0.21875 2.53125,-0.15625 1.8125,0.0312 2.375,0.28125 1.3125,0.53125 2.21875,1.875 0.84375,1.25 1,3 0.0625,1.28125 -0.1875,1.5625 -0.375,0.375 -2.6875,0.375 h -0.96875 q -3.34375,0 -3.6875,0.3125 -0.28125,0.28125 0.1875,1.0625 1.34375,2.5625 3.9375,0.84375 1.5,-1.03125 1.84375,-1.15625 0.21875,-0.0625 0.75,0.1875 0.875,0.5 0.5,1.34375 -0.34375,0.78125 -1.9375,1.75 -0.65625,0.375 -1.1875,0.46875 -0.5,0.0937 -2.28125,0.0937 -2.46875,0 -3.0625,-0.1875 -0.6875,-0.15625 -1.6875,-1.1875 -0.9375,-0.96875 -1.1875,-1.78125 -0.5625,-1.96875 -0.34375,-3.6875 0.21875,-1.75 1.1875,-3.03125 1.15625,-1.5 2.6875,-1.96875 z m 3.0625,2.40625 q -0.71875,-0.46875 -1.5625,-0.15625 -0.3125,0.125 -0.6875,1.09375 -0.375,0.96875 -0.1875,1.125 0.1875,0.1875 1.59375,0.1875 1.40625,0 1.625,-0.21875 0.21875,-0.21875 -0.0625,-0.96875 -0.28125,-0.78125 -0.71875,-1.0625 z"
       style="font-style:normal;font-variant:normal;font-weight:normal;font-stretch:normal;font-size:32px;font-family:p5hatty;-inkscape-font-specification:'p5hatty, Normal';font-variant-ligatures:normal;font-variant-caps:normal;font-variant-numeric:normal;font-feature-settings:normal;text-align:start;writing-mode:lr-tb;text-anchor:start"
       id="path920" />
  </g>
  <rect
     style="fill:#000000;fill-opacity:1;fill-rule:evenodd"
     id="rect960"
     width="248.15852"
     height="87.064026"
     x="21.896339"
     y="25.289648" />
  <g
     aria-label="Shadow name"
     transform="scale(0.82248393,1.2158292)"
     style="font-style:normal;font-variant:normal;font-weight:500;font-stretch:normal;font-size:64.84422302px;line-height:1.25;font-family:'Goodbye Despair';-inkscape-font-specification:'Goodbye Despair, Medium';font-variant-ligatures:normal;font-variant-caps:normal;font-variant-numeric:normal;font-feature-settings:normal;text-align:start;letter-spacing:0px;word-spacing:0px;writing-mode:lr-tb;text-anchor:start;fill:#000000;fill-opacity:1;stroke:none;stroke-width:1.21582925"
     id="text964">
    <path
       d="m 63.389187,48.941957 -2.066909,22.33073 -16.251584,-1.499523 2.066909,-22.33073 z m -4.214874,5.349648 q -0.121583,-2.350603 -1.458995,-3.201683 -1.337412,-0.891608 -3.647488,-0.891608 -1.985854,0 -3.201684,1.094246 -1.175301,1.094246 -1.175301,2.999045 0,0.932136 0.445804,1.661634 0.445804,0.729497 1.256357,1.256356 0.567387,0.364749 1.256357,0.648443 0.688969,0.243166 1.377939,0.486331 0.729498,0.243166 1.37794,0.52686 0.648442,0.243166 1.134774,0.648442 0.405277,0.324221 0.567387,0.770025 0.162111,0.405277 0.162111,0.891608 0,0.648443 -0.283694,1.175302 -0.283693,0.486332 -0.729497,0.85108 -0.445804,0.324222 -1.013191,0.52686 -0.567387,0.16211 -1.175302,0.16211 -1.661633,0 -2.796407,-0.932135 -1.134774,-0.972664 -1.134774,-2.553242 l -1.418468,0.08105 q 0.121583,2.188493 1.418468,3.525905 1.296884,1.296885 3.728543,1.296885 1.013191,0 1.904799,-0.283694 0.891608,-0.283693 1.54005,-0.810553 0.648443,-0.567387 1.013191,-1.337412 0.405277,-0.810553 0.405277,-1.783216 0,-1.742689 -1.37794,-2.75588 -0.567387,-0.405276 -1.215829,-0.648442 -0.648443,-0.283693 -1.37794,-0.526859 -0.68897,-0.243166 -1.37794,-0.486332 -0.648442,-0.283693 -1.215829,-0.648442 -1.053719,-0.729498 -1.053719,-1.864272 0,-1.053718 0.770025,-1.742688 0.810553,-0.729498 2.472186,-0.729498 1.580578,0 2.472187,0.648443 0.932135,0.648442 0.972663,2.188492 z"
       style="font-style:normal;font-variant:normal;font-weight:normal;font-stretch:normal;font-size:40.5276413px;font-family:'Earwig Factory';-inkscape-font-specification:'Earwig Factory, Normal';font-variant-ligatures:normal;font-variant-caps:normal;font-variant-numeric:normal;font-feature-settings:normal;text-align:start;writing-mode:lr-tb;text-anchor:start;fill:#ffffff;fill-opacity:1;stroke-width:1.21582925"
       id="path885" />
    <path
       d="M 86.065037,43.187032 82.0528,72.569572 64.504332,70.178441 68.557096,40.47168 Z m -6.768116,17.832162 q 0.04053,-0.202638 0.04053,-0.52686 0.04053,-0.324221 0.04053,-0.607914 0,-2.026382 -1.175302,-3.323267 -1.175301,-1.296884 -3.566432,-1.296884 -0.810553,0 -1.418468,0.243166 -0.567387,0.202638 -1.134774,0.526859 l 0.851081,-6.079146 -3.728543,-0.52686 -0.324221,2.512714 0.932136,0.162111 -2.147965,15.603142 2.634296,0.364748 1.296885,-8.997136 q 0.810553,-1.296885 2.350603,-1.296885 1.337412,0 2.06691,0.567387 0.770025,0.52686 0.770025,1.702161 0,0.162111 0,0.324221 0,0.121583 -0.04053,0.324222 l -1.296884,8.227111 2.553241,0.364749 z"
       style="font-style:normal;font-variant:normal;font-weight:normal;font-stretch:normal;font-size:40.5276413px;font-family:'Earwig Factory';-inkscape-font-specification:'Earwig Factory, Normal';font-variant-ligatures:normal;font-variant-caps:normal;font-variant-numeric:normal;font-feature-settings:normal;text-align:start;writing-mode:lr-tb;text-anchor:start;fill:#ffffff;fill-opacity:1;stroke-width:1.21582925"
       id="path887" />
    <path
       d="m 104.343,71.110576 -15.116809,1.702161 -3.60696,-23.992363 16.089469,-1.864272 1.74269,16.535278 q -1.09424,0 -1.41846,-1.418468 -0.40528,-1.783216 -0.68897,-3.282739 -0.24317,-1.54005 -0.48634,-2.674824 -0.36474,-1.499523 -0.81055,-2.472186 -0.445803,-1.013191 -1.053718,-1.580578 -0.567387,-0.607915 -1.296884,-0.85108 -0.68897,-0.243166 -1.540051,-0.243166 -2.674824,0 -4.174347,1.296884 -1.458995,1.256357 -1.904799,3.931181 l 1.985855,0.283694 q 0.607914,-3.485377 3.971709,-3.485377 1.094246,0 1.661633,0.729497 0.607914,0.729498 1.053719,2.836935 -1.783217,0.202638 -3.323267,0.607915 -1.54005,0.364749 -2.674824,1.053718 -1.094247,0.648443 -1.742689,1.621106 -0.648442,0.972664 -0.648442,2.310076 0,0.68897 0.16211,1.418467 0.202639,0.729498 0.68897,1.337412 0.486332,0.607915 1.337412,0.972664 0.851081,0.405276 2.229021,0.405276 2.391131,0 3.890653,-0.729497 1.499519,-0.729498 2.066909,-1.702161 0.20264,0.85108 1.01319,1.256357 0.81055,0.445804 1.62111,0.445804 0.0811,0 0.16211,-0.04053 0.0811,0 0.16211,0 z m -4.417512,-9.078191 q -0.445804,1.013191 -1.499523,1.742688 -1.053718,0.729498 -3.161156,0.729498 -1.499522,0 -2.147965,-0.68897 -0.607914,-0.68897 -0.607914,-1.742689 0,-0.648442 0.202638,-1.215829 0.243166,-0.567387 0.932136,-1.013191 0.729497,-0.486332 2.026382,-0.85108 1.296884,-0.364749 3.485377,-0.68897 z"
       style="font-style:normal;font-variant:normal;font-weight:normal;font-stretch:normal;font-size:40.5276413px;font-family:'Earwig Factory';-inkscape-font-specification:'Earwig Factory, Normal';font-variant-ligatures:normal;font-variant-caps:normal;font-variant-numeric:normal;font-feature-settings:normal;text-align:start;writing-mode:lr-tb;text-anchor:start;fill:#ffffff;fill-opacity:1;stroke-width:1.21582925"
       id="path889" />
    <path
       d="M 130.86074,71.313215 H 105.69308 V 37.675272 h 25.16766 z m -2.06691,-2.512714 v -2.91799 h -3.93118 q -1.05372,0 -1.74269,-0.283694 -0.68897,-0.243166 -1.09424,-0.810553 -0.40528,-0.567387 -0.60792,-1.499522 -0.16211,-0.972664 -0.16211,-2.310076 l -0.0811,-15.157338 h -4.37699 v 2.958518 h 1.459 v 3.080101 q -1.54005,-1.053719 -3.16116,-1.053719 -1.29688,0 -2.39113,0.567387 -1.05372,0.567387 -1.82374,1.54005 -0.77003,0.932136 -1.21583,2.188493 -0.40528,1.256357 -0.40528,2.593769 0,3.485377 1.459,5.511759 1.45899,2.026382 4.09329,2.026382 1.01319,0 2.02638,-0.445804 1.05372,-0.445804 1.78322,-1.215829 0.28369,2.269548 1.70216,3.728543 1.41847,1.499523 3.85012,1.499523 z M 117.97295,57.776982 q 0,4.458041 -3.03957,4.458041 -2.79641,0 -2.79641,-4.539096 0,-1.702161 0.77003,-2.796407 0.77002,-1.134774 2.14796,-1.134774 1.37794,0 2.14797,1.215829 0.77002,1.175302 0.77002,2.796407 z"
       style="font-style:normal;font-variant:normal;font-weight:normal;font-stretch:normal;font-size:40.5276413px;font-family:'Earwig Factory';-inkscape-font-specification:'Earwig Factory, Normal';font-variant-ligatures:normal;font-variant-caps:normal;font-variant-numeric:normal;font-feature-settings:normal;text-align:start;writing-mode:lr-tb;text-anchor:start;fill:#ffffff;fill-opacity:1;stroke-width:1.21582925"
       id="path891" />
    <path
       d="m 157.27717,72.691154 -22.20915,-1.337412 1.41847,-28.734097 22.20914,1.377939 z m -10.01033,-4.701206 q 1.9048,0 3.32327,-0.85108 1.45899,-0.810553 2.39113,-2.188493 0.97266,-1.37794 1.45899,-3.080101 0.48633,-1.742688 0.48633,-3.566432 0,-3.44485 -2.10743,-5.471232 -2.06691,-2.026382 -5.7144,-2.026382 -1.66163,0 -3.0801,0.607915 -1.37794,0.607914 -2.43166,1.783216 -1.01319,1.134774 -1.58058,2.796407 -0.56739,1.661634 -0.56739,3.728543 0,1.580578 0.44581,3.080101 0.4458,1.499523 1.37794,2.634297 0.97266,1.175301 2.43166,1.864271 1.49952,0.68897 3.56643,0.68897 z m 0.12158,-13.0499 q 0.89161,0 1.49953,0.364748 0.64844,0.364749 1.05371,0.972664 0.44581,0.607914 0.64845,1.418467 0.20263,0.770025 0.20263,1.621106 0,2.310075 -0.97266,3.444849 -0.93213,1.134774 -2.47219,1.134774 -1.6211,0 -2.71535,-1.094246 -1.05372,-1.134774 -1.05372,-3.120628 0,-2.269548 1.09425,-3.485378 1.09425,-1.256356 2.71535,-1.256356 z"
       style="font-style:normal;font-variant:normal;font-weight:normal;font-stretch:normal;font-size:40.5276413px;font-family:'Earwig Factory';-inkscape-font-specification:'Earwig Factory, Normal';font-variant-ligatures:normal;font-variant-caps:normal;font-variant-numeric:normal;font-feature-settings:normal;text-align:start;writing-mode:lr-tb;text-anchor:start;fill:#ffffff;fill-opacity:1;stroke-width:1.21582925"
       id="path893" />
    <path
       d="m 181.39491,52.548917 0.28369,18.764298 -20.87173,0.324221 -0.28369,-18.764298 z m -0.64844,6.079146 -2.39113,-0.810553 -2.6343,7.821835 -2.6343,-7.011282 -2.39113,0.08105 -2.39113,7.21392 -2.83693,-7.416558 -3.32327,-0.04053 0.0405,2.431659 1.58058,-0.04053 3.44485,8.916081 2.22902,-0.04053 2.51271,-7.335503 2.67483,7.254447 2.10743,-0.04053 z"
       style="font-style:normal;font-variant:normal;font-weight:normal;font-stretch:normal;font-size:40.5276413px;font-family:'Earwig Factory';-inkscape-font-specification:'Earwig Factory, Normal';font-variant-ligatures:normal;font-variant-caps:normal;font-variant-numeric:normal;font-feature-settings:normal;text-align:start;writing-mode:lr-tb;text-anchor:start;fill:#ffffff;fill-opacity:1;stroke-width:1.21582925"
       id="path895" />
    <path
       d="m 222.96677,48.090876 1.74269,21.47965 -22.37126,1.823744 -1.82374,-21.439122 z m -17.26478,4.417513 0.2837,3.363794 1.86427,-0.04053 0.64844,11.428795 3.3638,-0.202639 -0.48634,-10.010327 q 0.12159,-0.891608 0.93214,-1.54005 0.85108,-0.648443 2.39113,-0.648443 0.93214,0 1.54005,0.567387 0.64844,0.52686 0.7295,1.702161 l 0.68897,10.415604 3.48538,-0.283693 -0.7295,-10.131911 q -0.20264,-2.877462 -1.70216,-4.29593 -1.459,-1.418467 -3.76907,-1.418467 -1.25636,0 -2.67483,0.526859 -1.37794,0.486332 -2.22902,1.418468 l -0.0811,-1.134774 z"
       style="font-style:normal;font-variant:normal;font-weight:normal;font-stretch:normal;font-size:40.5276413px;font-family:'Earwig Factory';-inkscape-font-specification:'Earwig Factory, Normal';font-variant-ligatures:normal;font-variant-caps:normal;font-variant-numeric:normal;font-feature-settings:normal;text-align:start;writing-mode:lr-tb;text-anchor:start;fill:#ffffff;fill-opacity:1;stroke-width:1.21582925"
       id="path897" />
    <path
       d="m 244.60663,71.110576 -15.11681,1.702161 -3.60696,-23.992363 16.08948,-1.864272 1.74269,16.535278 q -1.09425,0 -1.41847,-1.418468 -0.40528,-1.783216 -0.68897,-3.282739 -0.24317,-1.54005 -0.48633,-2.674824 -0.36475,-1.499523 -0.81056,-2.472186 -0.4458,-1.013191 -1.05371,-1.580578 -0.56739,-0.607915 -1.29689,-0.85108 -0.68897,-0.243166 -1.54005,-0.243166 -2.67482,0 -4.17435,1.296884 -1.45899,1.256357 -1.90479,3.931181 l 1.98585,0.283694 q 0.60791,-3.485377 3.97171,-3.485377 1.09424,0 1.66163,0.729497 0.60792,0.729498 1.05372,2.836935 -1.78322,0.202638 -3.32327,0.607915 -1.54005,0.364749 -2.67482,1.053718 -1.09425,0.648443 -1.74269,1.621106 -0.64844,0.972664 -0.64844,2.310076 0,0.68897 0.16211,1.418467 0.20264,0.729498 0.68897,1.337412 0.48633,0.607915 1.33741,0.972664 0.85108,0.405276 2.22902,0.405276 2.39113,0 3.89065,-0.729497 1.49953,-0.729498 2.06691,-1.702161 0.20264,0.85108 1.0132,1.256357 0.81055,0.445804 1.6211,0.445804 0.0811,0 0.16211,-0.04053 0.0811,0 0.16211,0 z m -4.41751,-9.078191 q -0.4458,1.013191 -1.49952,1.742688 -1.05372,0.729498 -3.16116,0.729498 -1.49952,0 -2.14796,-0.68897 -0.60792,-0.68897 -0.60792,-1.742689 0,-0.648442 0.20264,-1.215829 0.24317,-0.567387 0.93214,-1.013191 0.72949,-0.486332 2.02638,-0.85108 1.29688,-0.364749 3.48538,-0.68897 z"
       style="font-style:normal;font-variant:normal;font-weight:normal;font-stretch:normal;font-size:40.5276413px;font-family:'Earwig Factory';-inkscape-font-specification:'Earwig Factory, Normal';font-variant-ligatures:normal;font-variant-caps:normal;font-variant-numeric:normal;font-feature-settings:normal;text-align:start;writing-mode:lr-tb;text-anchor:start;fill:#ffffff;fill-opacity:1;stroke-width:1.21582925"
       id="path899" />
    <path
       d="m 278.05461,46.30766 -0.52686,21.398595 -31.73314,-0.729498 0.48633,-21.398595 z m -5.39018,10.456131 q 0,-2.836934 -1.41847,-4.417512 -1.37794,-1.580578 -3.76907,-1.580578 -1.41846,0 -2.47218,0.526859 -1.05372,0.486332 -1.98586,1.54005 -0.56738,-1.134774 -1.49952,-1.702161 -0.89161,-0.567387 -1.98585,-0.567387 -1.94533,0 -3.24221,1.499523 v -1.256357 l -4.9849,-0.16211 v 3.850125 l 1.49952,0.08106 -0.2837,9.888744 3.76908,0.162111 0.36474,-8.389222 q 0.16211,-0.810553 0.81056,-1.296884 0.68897,-0.52686 1.6211,-0.52686 1.1753,0 1.54005,0.648442 0.40528,0.648443 0.40528,1.783217 l -0.24317,7.90289 h 3.8096 l 0.20264,-7.983946 q 0.0405,-1.013191 0.64844,-1.580578 0.60792,-0.607914 1.54005,-0.607914 0.93214,0 1.37794,0.567387 0.48633,0.567387 0.44581,1.499522 l -0.20264,9.11872 3.8096,0.08105 z"
       style="font-style:normal;font-variant:normal;font-weight:normal;font-stretch:normal;font-size:40.5276413px;font-family:'Earwig Factory';-inkscape-font-specification:'Earwig Factory, Normal';font-variant-ligatures:normal;font-variant-caps:normal;font-variant-numeric:normal;font-feature-settings:normal;text-align:start;writing-mode:lr-tb;text-anchor:start;fill:#ffffff;fill-opacity:1;stroke-width:1.21582925"
       id="path901" />
    <path
       d="m 301.76771,37.02683 5.34965,23.911308 -20.62857,4.579624 -5.39018,-23.911308 z m 0.48633,14.022564 q -0.20264,-0.68897 -0.36475,-1.37794 -0.12158,-0.729497 -0.32422,-1.418467 -0.85108,-2.512714 -2.59377,-4.093292 -1.74269,-1.621106 -4.29593,-1.621106 -1.78322,0 -3.24221,0.648443 -1.41847,0.607914 -2.43166,1.702161 -1.01319,1.094246 -1.58058,2.553241 -0.52686,1.458995 -0.52686,3.161156 0,2.026382 0.60792,3.728543 0.64844,1.702161 1.66163,2.958518 1.05372,1.256357 2.43166,1.985854 1.37794,0.68897 2.91799,0.68897 1.13477,0 2.31007,-0.405276 2.6343,-0.891608 3.89066,-2.674825 1.25636,-1.783216 1.54005,-4.29593 l -4.82279,1.013191 q -0.16211,0.68897 -0.93214,1.134774 -0.77002,0.445804 -1.70216,0.445804 -0.81055,0 -1.54005,-0.405276 -0.68897,-0.445804 -1.01319,-1.458995 z m -10.29402,-1.904799 q 0.0811,-0.932136 0.7295,-1.37794 0.68897,-0.486332 1.49952,-0.486332 0.52686,0 1.01319,0.243166 0.48633,0.202638 0.77002,0.68897 z"
       style="font-style:normal;font-variant:normal;font-weight:normal;font-stretch:normal;font-size:40.5276413px;font-family:'Earwig Factory';-inkscape-font-specification:'Earwig Factory, Normal';font-variant-ligatures:normal;font-variant-caps:normal;font-variant-numeric:normal;font-feature-settings:normal;text-align:start;writing-mode:lr-tb;text-anchor:start;fill:#ffffff;fill-opacity:1;stroke-width:1.21582925"
       id="path903" />
  </g>
</svg>
